<svg width="78" height="78" viewBox="0 0 78 78" fill="none" xmlns="http://www.w3.org/2000/svg">
<path fill-rule="evenodd" clip-rule="evenodd" d="M45.571 68.4064C46.0378 68.0508 46.5791 67.8055 47.1493 67.6667C62.1698 64.0087 73.3201 50.4665 73.3201 34.32C73.3201 15.3656 57.9545 0 39.0001 0C20.0456 0 4.68005 15.3656 4.68005 34.32C4.68005 47.018 11.5761 58.1053 21.8273 64.0412C22.5605 64.4658 23.168 65.0833 23.5394 65.8447L28.2812 75.5654C29.3878 77.8339 32.2929 78.5231 34.3005 76.9935L45.571 68.4064Z" fill="#333333"/>
<ellipse cx="38.8214" cy="46.8694" rx="2.43478" ry="2.43478" fill="white"/>
<path d="M43.6304 20.4314C41.8412 19.549 39.8304 19.217 37.8525 19.4774C35.8745 19.7378 34.0182 20.5789 32.5183 21.8943C31.5445 22.7483 30.7493 23.7774 30.1699 24.9215C29.6493 25.9498 30.3284 27.1092 31.4417 27.4075L32.1136 27.5876C33.2269 27.8859 34.3448 27.181 35.0532 26.2718C35.2544 26.0134 35.4805 25.7734 35.729 25.5554C36.5048 24.8751 37.465 24.44 38.4881 24.3053C39.5111 24.1706 40.5512 24.3423 41.4767 24.7987C42.4022 25.2551 43.1715 25.9757 43.6875 26.8694C44.2034 27.763 44.4428 28.7896 44.3753 29.8193C44.3078 30.849 43.9365 31.8356 43.3083 32.6542C42.6801 33.4729 41.8233 34.0869 40.8462 34.4186C40.0433 34.6955 39.8273 34.6955 38.9998 34.6955L38.3042 34.6955C37.1516 34.6955 36.2172 35.6298 36.2172 36.7824V40.2607C36.2172 41.4133 37.1516 42.3476 38.3042 42.3476H38.9999C40.1524 42.3476 41.0868 41.4133 41.0868 40.2607C41.0868 39.75 41.4568 39.3182 41.9473 39.1761C42.0974 39.1326 42.2518 39.0839 42.4114 39.0297C44.3006 38.3884 45.9571 37.2014 47.1716 35.6186C48.3861 34.0359 49.104 32.1285 49.2344 30.1378C49.3649 28.1471 48.9021 26.1623 47.9046 24.4346C46.9071 22.7069 45.4197 21.3137 43.6304 20.4314Z" fill="white"/>
</svg>
